<?xml version="1.0" encoding="UTF-8"?>
<!-- Generator: visioncortex VTracer 0.6.12 -->
<svg version="1.1" xmlns="http://www.w3.org/2000/svg" width="587" height="245">
<path d="M0 0 C193.7 0 387.4 0 587 0 C587 80.9 587 161.7 587 245 C393.3 245 199.6 245 0 245 C0 164.1 0 83.3 0 0 Z " fill="#E7EBF6" transform="translate(0,0)"/>
<path d="M0 0 C10.3 9.7 8.7 21.7 8.6 35.1 C8.6 37 8.6 39 8.6 40.9 C8.6 46 8.6 51.1 8.5 56.1 C8.5 61.3 8.5 66.5 8.5 71.7 C8.4 81.8 8.4 92 8.3 102.1 C9 100.4 9.6 98.6 10.3 96.9 C10.4 96.4 10.4 96.4 11.3 93.9 C12.4 90.7 13.3 87.6 13.9 84.3 C14.8 80.1 15.9 76.2 17.3 72.1 C18 72.1 18.6 72.1 19.3 72.1 C19.3 70.1 19.3 68.2 19.3 66.1 C19.6 65.6 19.6 65.6 21.3 63.1 C21.6 61.5 22 59.8 22.3 58.1 C23 58.1 23.6 58.1 24.3 58.1 C24.3 56.1 24.3 54.2 24.3 52.1 C26.1 45.9 28.4 40 31.3 34.1 C32 34.1 32.6 34.1 33.3 34.1 C33.6 32.5 34 30.8 34.3 29.1 C42.5 17.5 42.5 17.5 49.6 16.8 C50.2 16.8 50.2 16.8 53.1 16.9 C53.7 17 53.7 17 56.6 17 C57.5 17.1 58.4 17.1 59.3 17.1 C59.6 18.4 60 19.8 60.3 21.1 C61.6 21.5 63 21.8 64.3 22.1 C71.6 38.3 64.7 57 60.3 73.1 C59.7 73.1 59 73.1 58.3 73.1 C58 78.4 57.7 83.7 57.3 89.1 C56.7 89.1 56 89.1 55.3 89.1 C55.2 90.3 55.1 91.5 54.9 92.7 C54.4 96.8 53.5 100.6 52.5 104.6 C52.1 106 51.8 107.4 51.4 108.8 C50.7 111.6 50 114.4 49.2 117.1 C45.9 128.8 45 140.2 47.3 152.1 C57.2 149.9 61.2 148.1 66.3 139.1 C74.3 128 84.7 123.9 98.2 123.9 C99.9 124 101.6 124 103.3 124.1 C103.3 124.8 103.3 125.4 103.3 126.1 C103.8 126.2 103.8 126.2 106 126.4 C113.2 127.9 116.9 132.6 121.3 138.1 C121.6 139.4 122 140.8 122.3 142.1 C118.8 145.5 118.8 145.5 114.3 149.1 C107.5 154.8 107.5 154.8 105.3 158.1 C104.7 158.1 104 158.1 103.3 158.1 C102.7 159.4 102 160.8 101.3 162.1 C99.8 163.6 98.3 164.9 96.7 166.2 C85.6 176 77.8 188.6 70.3 201.1 C69.7 201.1 69 201.1 68.3 201.1 C67.7 202.8 67 204.4 66.3 206.1 C64.4 208.5 64.4 208.5 62.2 210.8 C58.3 215.1 58.3 215.1 57.3 217.1 C56.7 217.1 56 217.1 55.3 217.1 C54.7 218.8 54 220.4 53.3 222.1 C51 224.2 51 224.2 48.3 226.1 C47.5 226.8 46.6 227.5 45.7 228.2 C44.9 228.9 44.1 229.6 43.2 230.2 C42.3 230.9 41.5 231.6 40.6 232.3 C35.2 236.6 31.8 236.4 24.8 236.4 C23.8 236.4 22.7 236.4 21.6 236.4 C18 236.5 14.4 236.5 10.8 236.5 C8.4 236.5 5.9 236.5 3.4 236.5 C-1.8 236.5 -7 236.5 -12.2 236.5 C-18.8 236.5 -25.5 236.5 -32.2 236.6 C-37.3 236.6 -42.4 236.6 -47.5 236.6 C-50 236.6 -52.4 236.6 -54.9 236.6 C-58.3 236.6 -61.8 236.6 -65.2 236.6 C-67.2 236.6 -69.1 236.6 -71.1 236.6 C-75.7 236.1 -75.7 236.1 -78.7 232.1 C-80 228.2 -80.7 225.3 -80.7 221.1 C-81.7 221.1 -82.7 221.1 -83.7 221.1 C-84.8 217.7 -86 214.2 -87.1 210.8 C-87.5 209.8 -87.8 208.8 -88.1 207.8 C-90.2 201.5 -91.1 195.7 -91.7 189.1 C-92.2 187.8 -92.7 186.5 -93.2 185.1 C-95.5 177.5 -95 170 -94.9 162.1 C-94.9 161.2 -94.9 161.2 -94.8 157.1 C-94.8 153.1 -94.7 149.1 -94.7 145.1 C-95.3 145.1 -96 145.1 -96.7 145.1 C-97.2 143.5 -97.6 141.9 -98.1 140.3 C-98.9 137.6 -99.8 134.8 -100.7 132.1 C-102 131.8 -103.3 131.5 -104.7 131.1 C-105.9 128.1 -105.9 128.1 -106.7 125.1 C-107.3 125.1 -108 125.1 -108.7 125.1 C-109.1 123.7 -109.5 122.3 -109.9 120.9 C-111.7 116.1 -111.7 116.1 -115.7 112.1 C-117 110.1 -118.2 108 -119.4 105.8 C-120 104.7 -120.6 103.6 -121.2 102.5 C-122.7 99.1 -122.7 99.1 -123.1 95.3 C-123.3 94.2 -123.5 93.2 -123.7 92.1 C-125 91.8 -126.3 91.5 -127.7 91.1 C-132.2 80.8 -134.7 69.2 -128.7 59.1 C-123.1 54.2 -120.2 54 -112.7 54.1 C-112.7 54.8 -112.7 55.4 -112.7 56.1 C-111 56.5 -109.4 56.8 -107.7 57.1 C-100.7 64.1 -86.7 78.5 -86.7 89.1 C-85.7 89.5 -84.7 89.8 -83.7 90.1 C-79.7 95.8 -77.2 101.7 -74.7 108.1 C-71.1 114.9 -71.1 114.9 -68.7 116.1 C-69 115.2 -69 115.2 -70.6 110.4 C-72.7 103.7 -73.8 97.1 -74.7 90.1 C-75.3 90.1 -76 90.1 -76.7 90.1 C-77 89.1 -77.2 88.1 -77.5 87.1 C-77.7 86.4 -77.7 86.4 -78.6 83 C-78.9 81.7 -79.3 80.4 -79.6 79 C-80.3 76.6 -81 74.3 -81.8 72 C-82.7 69.1 -83.2 66.3 -83.6 63.2 C-84.2 59.6 -84.7 57 -86.2 53.7 C-89.9 44.8 -91.8 31.4 -88.7 22.1 C-88 22.1 -87.4 22.1 -86.7 22.1 C-86.4 20.8 -86 19.5 -85.7 18.1 C-81.9 12.7 -80.1 12.2 -73.4 11.9 C-64.3 12.3 -60.8 15.5 -54.7 22.1 C-52 26.6 -51 29.2 -49.9 34.1 C-48.2 40.9 -46.5 47.7 -44.6 54.4 C-44.1 56.2 -43.6 58 -43.1 59.8 C-41.7 64.1 -41.7 64.1 -39.7 67.1 C-39 70.5 -38.3 73.8 -37.7 77.1 C-37 78.4 -36.4 79.8 -35.7 81.1 C-34.4 86.4 -33 91.7 -31.7 97.1 C-31.4 69.4 -31 41.7 -30.7 13.1 C-30 13.1 -29.4 13.1 -28.7 13.1 C-28.7 12.1 -28.7 11.1 -28.7 10.1 C-28 10.1 -27.4 10.1 -26.7 10.1 C-26.4 8.5 -26 6.8 -25.7 5.1 C-19.6 -4.5 -9.8 -6 0 0 Z " fill="#908F8F" transform="translate(160.6875,8.875)"/>
<path d="M0 0 C3.4 2.1 3.4 2.1 6 5 C7.1 6.2 8.2 7.3 9.3 8.5 C13.4 13.8 13.1 18.8 13.1 25.3 C13.1 27 13.1 28.6 13.1 30.4 C13.1 32.2 13.1 34 13.1 35.9 C13.1 36.8 13.1 36.8 13.1 41.5 C13.1 46.4 13.1 51.4 13.1 56.3 C13.1 61.3 13.1 66.4 13 71.4 C13 81.3 13 91.1 13 101 C13.7 101 14.3 101 15 101 C15.1 100.3 15.1 100.3 15.3 96.6 C15.5 95.1 15.8 93.6 16 92 C17 91.7 18 91.3 19 91 C19.4 87.7 19.7 84.3 20 81 C21 77.5 22.2 74.1 23.4 70.7 C25.8 63.8 27.8 57 29.3 49.9 C30.5 45.1 32.3 40.6 34 36 C34.4 34.7 34.7 33.4 35.1 32.1 C36.7 26.6 40.6 19.7 46 17 C54.1 16.2 60.1 15.7 66.9 20.4 C76.2 31.3 70.6 49.8 67.3 62.4 C66.2 66.3 65.1 70.1 64 74 C63.3 74 62.7 74 62 74 C61.9 74.7 61.9 74.7 61.7 78.3 C61 84.2 59.7 89.3 58 95 C57.3 95 56.7 95 56 95 C56 95.6 56 95.6 56.1 98.4 C56 103.3 55.5 108.1 55 113 C55.5 112.1 55.9 111.3 56.4 110.4 C57 109.3 57.7 108.2 58.3 107.1 C58.9 106 59.5 104.9 60.2 103.7 C62 101 62 101 65 100 C65.5 98.6 65.9 97.3 66.4 95.9 C68 91 69.9 88.1 73 84 C73.8 82.5 74.7 80.9 75.6 79.3 C78 75 78 75 82 71 C83 69.3 84 67.7 85 66 C88.7 60.8 91.4 59.6 97.6 59.4 C103.9 59.5 107.5 61.5 112 66 C112 66.7 112 67.3 112 68 C112.7 68 113.3 68 114 68 C114.3 76.6 114.4 83.9 111 92 C110.3 92 109.7 92 109 92 C108.9 93.1 108.8 94.1 108.8 95.2 C107.9 99.4 106.8 100.9 104 104 C103.3 105.1 102.6 106.2 101.9 107.3 C101.6 107.8 101.6 107.8 100 110 C99.3 110 98.7 110 98 110 C97.6 111.3 97.1 112.6 96.7 114 C96.1 115.7 95.6 117.3 95 119 C94.5 120.4 94.1 121.7 93.6 123.1 C91.9 127.3 89.9 130.5 87 134 C86 134 85 134 84 134 C83.8 134.9 83.6 135.9 83.4 136.8 C82 141 82 141 78.9 146 C75.4 152.4 75.4 157.7 75.8 164.9 C76.3 181.9 74.6 197.1 67.9 212.9 C66 218 66 218 65.2 222.3 C64.8 223.9 64.4 225.4 64 227 C63.7 228.1 63.5 229.1 63.2 230.3 C61.7 234.5 60.3 236.9 57 240 C48.8 242 40.7 241.6 32.3 241.4 C29.8 241.4 27.4 241.4 24.9 241.4 C19.7 241.4 14.6 241.3 9.4 241.3 C2.8 241.1 -3.8 241.1 -10.4 241.1 C-15.5 241.1 -20.5 241 -25.6 241 C-28 241 -30.5 240.9 -32.9 240.9 C-36.3 240.9 -39.7 240.8 -43.1 240.8 C-44.1 240.8 -44.1 240.8 -49 240.7 C-54.4 239.9 -57 238.7 -61 235 C-61 234.3 -61 233.7 -61 233 C-61.7 232.7 -61.7 232.7 -65 231 C-65.3 230 -65.7 229 -66 228 C-67.6 227.3 -69.3 226.7 -71 226 C-75.7 220.9 -79.8 215.5 -84 210 C-84.8 209 -85.6 208 -86.4 206.9 C-90.9 200.8 -90.9 200.8 -91.4 196.8 C-91.6 195.9 -91.8 194.9 -92 194 C-93.3 193.7 -94.6 193.3 -96 193 C-100.4 188.7 -101.2 185.9 -102 180 C-103.3 179.3 -104.6 178.7 -106 178 C-106.7 177 -107.3 176 -108 175 C-109.6 174 -111.3 173 -113 172 C-114.6 170.4 -116.2 168.8 -117.8 167.2 C-120.8 164.1 -123.5 161.6 -127 159.1 C-141 148.3 -141 148.3 -141 142 C-138.6 139.8 -138.6 139.8 -135.4 137.5 C-134.3 136.7 -133.3 136 -132.2 135.2 C-123.2 129.1 -113.3 126.7 -102.7 130 C-95.3 133.3 -95.3 133.3 -94 136 C-92.7 136.7 -91.4 137.3 -90 138 C-87 142 -87 142 -87 144 C-86 144.3 -85 144.7 -84 145 C-83.7 145.6 -83.7 145.6 -82.1 148.8 C-77.8 154.7 -73.9 155.2 -67 157 C-67 157.7 -67 158.3 -67 159 C-66 158.7 -65 158.3 -64 158 C-63.2 154.8 -63.2 154.8 -62.8 150.8 C-62.6 149.5 -62.4 148.2 -62.2 146.8 C-61.8 139.1 -64.2 131.7 -66.1 124.2 C-66.9 120.5 -67.5 116.8 -68 113 C-68.7 113 -69.3 113 -70 113 C-70.1 111.9 -70.2 110.9 -70.4 109.8 C-71 106 -71 106 -73 101 C-73.3 98.3 -73.7 95.7 -74 93 C-74.7 91.3 -75.3 89.7 -76 88 C-76.3 85.2 -76.5 82.5 -76.6 79.7 C-76.7 79 -76.7 79 -76.9 75.3 C-76.9 74.2 -76.9 73.1 -77 72 C-78 72 -79 72 -80 72 C-80.8 69.1 -81.6 66.3 -82.4 63.4 C-82.9 61.8 -83.3 60.3 -83.8 58.6 C-85.5 52.1 -86.2 46.1 -86.2 39.4 C-86.2 38.1 -86.2 36.8 -86.2 35.5 C-85.8 29.3 -83.5 26 -79 22 C-71.6 19.5 -65.4 20.1 -59 24 C-56 27 -56 27 -54 32 C-49.5 41.3 -49.5 41.3 -47 45 C-47 46 -47 47 -47 48 C-46.3 48 -45.7 48 -45 48 C-44.8 48.8 -44.6 49.7 -44.4 50.6 C-43 56.9 -41.3 62.9 -39 69 C-38 72.7 -36.9 76.4 -36 80.1 C-35 83 -35 83 -33 84 C-32.1 86.4 -31.3 88.8 -30.5 91.2 C-30.1 92.5 -29.7 93.8 -29.2 95.2 C-29 95.8 -29 95.8 -28 99 C-27.3 101 -26.7 103 -26 105 C-26 104 -26 102.9 -26 101.9 C-26.1 91.1 -26.1 80.4 -26.1 69.7 C-26.1 65.7 -26.1 61.6 -26.2 57.6 C-26.2 51.9 -26.2 46.1 -26.2 40.4 C-26.2 38.6 -26.2 36.8 -26.2 34.9 C-26.2 12.1 -26.2 12.1 -16 2 C-11.1 -1.3 -5.7 -0.7 0 0 Z " fill="#8E8E8B" transform="translate(433,5)"/>
<path d="M0 0 C1.2 0 2.4 0 3.7 0 C7.6 0 11.4 0 15.3 0.1 C18 0.1 20.6 0.1 23.2 0.1 C29.7 0.1 36.1 0.2 42.6 0.2 C42.9 1.8 43.2 3.5 43.6 5.2 C47.9 6.4 47.9 6.4 52.6 7.2 C53.2 7.5 53.2 7.5 56.6 9.2 C56.6 9.9 56.6 10.5 56.6 11.2 C59.5 12.4 62.4 13.5 65.4 14.7 C65.9 14.9 65.9 14.9 68.6 16.2 C68.6 16.9 68.6 17.5 68.6 18.2 C70.2 18.2 71.9 18.2 73.6 18.2 C73.6 18.9 73.6 19.5 73.6 20.2 C76.5 21.2 79.5 22.2 82.6 23.2 C82.6 23.9 82.6 24.5 82.6 25.2 C83.6 25.2 84.6 25.2 85.6 25.2 C87.7 29.4 87 34.9 87.2 39.6 C87.3 40.8 87.3 41.9 87.4 43.1 C87.6 50.2 87.4 57.1 86.6 64.2 C85.9 64.2 85.3 64.2 84.6 64.2 C84.5 65.3 84.3 66.4 84.2 67.5 C82.3 81.6 79.3 96.6 72.6 109.2 C71.9 109.2 71.3 109.2 70.6 109.2 C70.2 110.8 69.9 112.5 69.6 114.2 C66.6 117.2 64 116.5 59.8 116.5 C58.1 116.5 56.5 116.5 54.8 116.5 C53 116.5 51.2 116.5 49.4 116.5 C48.5 116.5 48.5 116.5 43.8 116.5 C39.9 116.5 36.1 116.5 32.2 116.5 C26.2 116.5 20.3 116.5 14.3 116.6 C10.6 116.6 6.8 116.6 3.1 116.6 C1.3 116.6 -0.5 116.6 -2.4 116.6 C-4 116.6 -5.7 116.6 -7.4 116.6 C-8.8 116.6 -10.3 116.6 -11.8 116.6 C-15.4 116.2 -15.4 116.2 -19.4 113.2 C-19.4 112.5 -19.4 111.9 -19.4 111.2 C-20.1 110.9 -20.1 110.9 -23.4 109.2 C-23.8 108.5 -24.1 107.9 -24.4 107.2 C-25.5 106.7 -26.6 106.3 -27.7 105.8 C-36.7 100.8 -47.6 91.8 -51.4 82.2 C-54.4 77.2 -54.4 77.2 -57.5 74.7 C-60.4 72.2 -60.4 72.2 -62.4 67.2 C-64.1 65.2 -65.9 63.3 -67.7 61.4 C-72 56.9 -75.2 52.5 -78.4 47.2 C-80.7 44.8 -83 42.5 -85.4 40.2 C-86.2 39.4 -86.9 38.6 -87.7 37.8 C-90.3 35.3 -92.9 32.9 -95.5 30.5 C-96.3 29.7 -97.2 29 -98 28.2 C-100.4 26.2 -100.4 26.2 -104.4 24.2 C-104.4 23.5 -104.4 22.9 -104.4 22.2 C-105.1 22.2 -105.7 22.2 -106.4 22.2 C-105.4 18.2 -105.4 18.2 -100.4 15.2 C-99.4 15.2 -98.4 15.2 -97.4 15.2 C-97.4 14.5 -97.4 13.9 -97.4 13.2 C-87 12.9 -87 12.9 -81.4 15.2 C-81.4 15.9 -81.4 16.5 -81.4 17.2 C-79.8 17.9 -78.1 18.5 -76.4 19.2 C-72 22.6 -68 25.6 -66.7 31.3 C-64.8 35.7 -62 35.8 -57.4 37.2 C-52.7 39.1 -48 40.9 -43.4 43.2 C-38.4 42.2 -38.4 42.2 -34.4 40.2 C-33.4 36.6 -33.4 36.6 -32.7 32.2 C-31.5 24.3 -31.5 24.3 -30.4 22.2 C-29.8 22.2 -29.1 22.2 -28.4 22.2 C-28.5 20.5 -28.6 18.7 -28.7 16.9 C-28.4 11.2 -28.4 11.2 -24.4 7.2 C-23.8 7.2 -23.1 7.2 -22.4 7.2 C-22.1 6.2 -21.8 5.2 -21.4 4.2 C-19.8 3.5 -18.1 2.9 -16.4 2.2 C-11 -0.5 -5.9 -0.1 0 0 Z " fill="#FDFDFD" transform="translate(411.421875,128.8046875)"/>
<path d="M0 0 C0 0.7 0 1.3 0 2 C1 2.3 2 2.7 3 3 C3 4 3 5 3 6 C4 6 5 6 6 6 C6 6.7 6 7.3 6 8 C7.3 8 8.6 8 10 8 C15.5 12 16 16.5 17 23 C17.7 23 18.3 23 19 23 C19.1 23.6 19.1 23.6 19.4 26.4 C20 30 20 30 21 31 C21.1 32.4 21.2 33.9 21.3 35.4 C22 40 22 40 26 43 C31.6 43.6 33 43 38 40 C38.7 40 39.3 40 40 40 C40 39.3 40 38.7 40 38 C41.8 37.8 43.5 37.5 45.3 37.2 C51 36 51 36 54 32 C54.3 31.2 54.3 31.2 56 27 C61.3 22 61.3 22 64 22 C64.3 21 64.7 20 65 19 C72.6 14.4 80.4 13.9 89 15 C93 18 93 18 93 23 C91.4 24 89.7 25 88 26 C86.3 27.6 84.6 29.3 83 31 C77.2 37 77.2 37 75 37 C75 37.7 75 38.3 75 39 C72.3 41.3 69.7 43.7 67 46 C65.6 47.6 64.3 49.3 63 51 C62.2 51.8 61.3 52.5 60.5 53.3 C57.5 56.6 56 60 54 64 C50.9 68.5 50.9 68.5 48 72 C47.3 72 46.7 72 46 72 C45.3 73.7 44.7 75.3 44 77 C38.6 84.8 38.6 84.8 35 86 C33.7 88 32.3 90 31 92 C27 95 27 95 25 95 C24.8 95.5 24.8 95.5 24 98 C23.3 98 22.7 98 22 98 C21.8 98.5 21.8 98.5 21 101 C20.3 101 19.7 101 19 101 C19 101.7 19 102.3 19 103 C16.9 104.7 14.8 106.3 12.7 108 C10 110 10 110 6.9 113.1 C2.4 116.5 0.3 116.8 -5.3 116.8 C-6.9 116.8 -8.5 116.8 -10.2 116.8 C-11.9 116.8 -13.7 116.8 -15.5 116.8 C-17.3 116.8 -19.1 116.8 -20.9 116.8 C-24.7 116.8 -28.5 116.8 -32.3 116.8 C-38.2 116.8 -44 116.8 -49.8 116.8 C-53.5 116.8 -57.2 116.8 -60.9 116.8 C-62.7 116.8 -64.4 116.8 -66.2 116.8 C-67.8 116.8 -69.5 116.8 -71.1 116.8 C-72.6 116.8 -74 116.8 -75.5 116.8 C-80.1 115.8 -80.8 114 -83 110 C-83.7 109.7 -84.3 109.3 -85 109 C-87.2 104.5 -88 102.1 -88 97 C-89 96.7 -90 96.3 -91 96 C-92.4 91.9 -92.4 91.9 -93.7 86.7 C-94.1 85 -94.6 83.3 -95 81.5 C-96 77 -96 77 -96 73 C-96.7 73 -97.3 73 -98 73 C-99.3 62.4 -100.3 52.6 -99 42 C-99 40.9 -99 39.9 -98.9 38.8 C-98.8 30.7 -98.8 30.7 -94.6 26.9 C-93.4 26.3 -92.2 25.7 -91 25 C-90.3 24 -89.7 23 -89 22 C-86.5 20.5 -86.5 20.5 -83.6 18.9 C-82.7 18.4 -81.7 17.9 -80.7 17.4 C-78.5 16.3 -76.2 15.1 -74 14 C-71 11 -71 11 -70 8 C-65.1 5.2 -60.4 3.4 -55 2 C-54 1.7 -53 1.3 -52 1 C-51.1 0.9 -51.1 0.9 -46.4 0.5 C-31 -0.9 -15.8 -1.1 0 0 Z " fill="#FDFDFD" transform="translate(177,129)"/>
<path d="M0 0 C4.9 1.1 4.9 1.1 7.9 6.1 C9.3 11.3 9.1 16.7 9.1 22.1 C9.1 23.1 9.1 24.1 9.1 25.1 C9.1 28.4 9 31.7 9 35 C9 37.2 9 39.5 9 41.8 C9 47.8 9 53.8 9 59.8 C9 65.9 9 72 9 78.1 C9 90.1 9 102.1 8.9 114.1 C8.4 114.1 8.4 114.1 5.5 114.1 C0.4 114.2 -4.7 114.3 -9.8 114.4 C-10.6 114.4 -10.6 114.4 -15.1 114.4 C-16.8 114.5 -18.5 114.5 -20.3 114.6 C-21 114.6 -21 114.6 -25 114.6 C-29.1 115.1 -29.1 115.1 -34.1 118.1 C-34.7 118.2 -34.7 118.2 -38.1 119.1 C-39.4 120.4 -40.7 121.7 -42.1 123.1 C-42.7 123.1 -43.4 123.1 -44.1 123.1 C-44.4 127.4 -44.7 131.6 -45.1 136.1 C-45.4 136.1 -45.7 136.1 -46.1 136.1 C-46.2 134.4 -46.3 132.7 -46.4 131 C-46.9 126.2 -47.7 122.6 -49.1 118.1 C-49.6 115.9 -50 113.8 -50.5 111.6 C-51.4 107.8 -52.3 104.3 -53.8 100.6 C-55.1 97.1 -55.1 97.1 -55.1 91.1 C-55.7 91.1 -56.4 91.1 -57.1 91.1 C-57.1 88.8 -57.1 86.4 -57.1 84.1 C-57.7 84.1 -58.4 84.1 -59.1 84.1 C-59.1 82.4 -59.1 80.8 -59.1 79.1 C-59.7 79.1 -60.4 79.1 -61.1 79.1 C-61.3 77.5 -61.6 75.9 -61.8 74.2 C-62.2 72.1 -62.5 70 -62.9 67.9 C-63 66.8 -63.2 65.8 -63.4 64.7 C-64.3 59.3 -65.2 55.8 -68.1 51.1 C-68.2 47.2 -68.2 47.2 -68.1 44.1 C-68.7 44.1 -69.4 44.1 -70.1 44.1 C-70.1 40.8 -70.2 37.5 -70.2 34.2 C-70.2 32.4 -70.2 30.5 -70.3 28.6 C-70.1 24.1 -70.1 24.1 -68.1 22.1 C-64.1 21.6 -61.7 21.7 -58.1 23.5 C-55.1 27.3 -55.7 30.4 -56.1 35.1 C-54.7 35.1 -53.4 35.1 -52.1 35.1 C-49.9 41.4 -48 47.7 -46.2 54.1 C-45.9 55.3 -45.5 56.4 -45.2 57.6 C-44.9 58.6 -44.6 59.7 -44.3 60.8 C-43.1 64.1 -43.1 64.1 -41.1 67.5 C-38.9 71.4 -38 74.8 -37 79.1 C-35.9 84.3 -34.4 88.4 -32.1 93.1 C-31.3 95.8 -30.6 98.5 -29.9 101.2 C-29.6 102.6 -29.3 104 -28.9 105.4 C-28.6 106.6 -28.4 107.8 -28.1 109.1 C-27.7 110.4 -27.4 111.7 -27.1 113.1 C-24.3 112.9 -24.3 112.9 -10.1 112.1 C-10.2 102 -10.3 91.9 -10.4 81.8 C-10.5 78.4 -10.5 74.9 -10.6 71.5 C-10.6 66.6 -10.7 61.6 -10.7 56.7 C-10.8 55.2 -10.8 53.6 -10.8 52.1 C-10.9 45 -11.1 38.1 -12.1 31.1 C-13.7 0.2 -13.7 0.2 0 0 Z " fill="#79D3A0" transform="translate(428.0625,14.9375)"/>
<path d="M0 0 C5.5 2.7 6 5.3 8 11 C8.5 16.1 8.5 16.1 8.4 21.7 C8.4 22.7 8.4 23.7 8.4 24.7 C8.4 27.9 8.4 31 8.3 34.2 C8.3 36.3 8.3 38.4 8.3 40.5 C8.2 49.8 8 59.1 7.2 68.4 C6.7 76.5 6.6 84.7 6.4 92.9 C6.4 94.7 6.4 96.6 6.3 98.5 C6.2 103 6.1 107.5 6 112 C0.1 112 -5.9 112 -12 112 C-12 98.4 -12.1 84.8 -12.1 71.2 C-12.1 64.9 -12.1 58.6 -12.2 52.2 C-12.2 46.1 -12.2 40 -12.2 34 C-12.2 31.6 -12.2 29.3 -12.2 27 C-12.2 23.7 -12.2 20.5 -12.2 17.2 C-12.2 15.4 -12.2 13.5 -12.2 11.6 C-11.8 2.4 -9 -0.6 0 0 Z " fill="#94BCEB" transform="translate(152,16)"/>
<path d="M0 0 C4.6 -0.2 4.6 -0.2 9 0 C12.2 7.3 11.9 14.7 9 22 C8.7 24.7 8.3 27.3 8 30 C6.4 35.8 6.4 35.8 4 37 C3.6 39.2 3.3 41.4 3.1 43.6 C2.4 49 1.2 53.1 -1 58 C-1.6 61 -2 64.1 -2.5 67.1 C-3 70 -3 70 -4.5 73.9 C-6.2 78.6 -6.9 83 -7.5 87.9 C-8.1 91.4 -9 94.7 -10 98 C-10.4 100.3 -10.7 102.7 -11 105 C-11.7 105 -12.3 105 -13 105 C-12.1 112.9 -12.1 112.9 -11 114 C-11 116.7 -11 119.3 -11 122 C-11.3 122 -11.7 122 -12 122 C-12 119.7 -12 117.4 -12 115 C-12.7 115 -13.3 115 -14 115 C-14.2 113.4 -14.5 111.8 -14.8 110.1 C-16 105 -16 105 -20 103 C-20.3 102 -20.7 101 -21 100 C-22.3 100 -23.6 100 -25 100 C-25 99.3 -25 98.7 -25 98 C-26 98 -27 98 -28 98 C-28.3 97 -28.7 96 -29 95 C-30 94 -31 93 -32 92 C-31.8 86.1 -30.8 80.7 -29 75 C-28.3 75 -27.7 75 -27 75 C-26.9 73.5 -26.8 71.9 -26.7 70.4 C-26.1 65.4 -25.3 63.2 -23 59 C-21.9 55.4 -20.9 51.7 -20 48 C-19.3 48 -18.7 48 -18 48 C-17.9 46.5 -17.8 44.9 -17.6 43.4 C-17.1 39.2 -16.5 35.9 -15 32 C-14.3 32 -13.7 32 -13 32 C-13 30.3 -13 28.7 -13 27 C-12 25.4 -11 23.7 -10 22 C-9 18.3 -8 14.7 -7 11 C-6.3 10.3 -5.7 9.7 -5 9 C-4.7 7.7 -4.3 6.4 -4 5 C-3.3 4.7 -2.7 4.3 -2 4 C-1.3 2.7 -0.7 1.4 0 0 Z " fill="#F3A1C4" transform="translate(208,37)"/>
<path d="M0 0 C3.9 3.9 3.4 5.8 3.4 11.3 C3.4 12.1 3.4 12.1 3.4 15.8 C3 20 2.1 22.4 0 26 C-1.8 31.2 -3 35.8 -3.5 41.2 C-4 45.9 -5 48.7 -7 53 C-9.3 59.3 -11.4 65.3 -12 72 C-12.7 72 -13.3 72 -14 72 C-14.1 73.8 -14.2 75.7 -14.3 77.6 C-14.6 82.7 -16 86.3 -18 91 C-18.8 94.1 -19.5 97.3 -20.2 100.4 C-20.5 102 -20.9 103.7 -21.2 105.3 C-21.5 106.5 -21.7 107.7 -22 109 C-22.7 109 -23.3 109 -24 109 C-24 108.3 -24 107.7 -24 107 C-25.6 106.7 -27.2 106.4 -28.8 106.1 C-36.2 104.5 -36.2 104.5 -39 99 C-40.2 94.4 -39.5 92.6 -38.1 88.1 C-36.8 83.7 -35.7 79.5 -35 75 C-34.3 75 -33.7 75 -33 75 C-33 73.3 -33 71.7 -33 70 C-32.4 67.7 -31.7 65.3 -31 63 C-30.3 63 -29.7 63 -29 63 C-29 62 -29.1 61 -29.1 59.9 C-29 55.8 -28.2 53 -26.8 49.2 C-24.7 43.5 -23.2 37.9 -22 31.9 C-15 -1.2 -15 -1.2 0 0 Z " fill="#EFC798" transform="translate(492,31)"/>
<path d="M0 0 C5.9 1.3 9.4 4.1 12.1 9.5 C13.9 14.1 14.8 17.8 14.8 22.8 C15.4 22.8 16.1 22.8 16.8 22.8 C16.9 23.9 17 25.1 17.2 26.2 C17.8 29.8 17.8 29.8 18.8 30.8 C18.8 32.8 18.8 34.8 18.8 36.8 C19.4 36.8 20.1 36.8 20.8 36.8 C21.3 38.9 21.8 40.9 22.2 43 C22.5 44.1 22.8 45.3 23.1 46.5 C23.8 49.8 23.8 49.8 23.8 54.8 C24.4 54.8 25.1 54.8 25.8 54.8 C27 60.1 27.8 64.4 27.8 69.8 C28.4 69.8 29.1 69.8 29.8 69.8 C29.9 70.7 30 71.5 30.1 72.4 C31 78.7 32.1 84 34.8 89.8 C35.8 93.5 36.8 97.1 37.8 100.8 C33.7 102.8 30.1 103.8 25.8 104.8 C22.3 105.8 22.3 105.8 19.8 106.8 C19.4 107.8 19.1 108.8 18.8 109.8 C18.5 108.3 18.2 106.9 17.9 105.4 C16.8 99.8 16.8 99.8 15.1 95.1 C13.8 90.8 13.8 90.8 13.8 84.8 C13.1 84.8 12.4 84.8 11.8 84.8 C9.9 80.2 9.3 76.9 8.8 72.1 C8.1 66 6.9 60.6 4.8 54.8 C4.8 53.8 4.8 52.8 4.8 51.8 C4.1 51.8 3.4 51.8 2.8 51.8 C2.4 47.9 2.1 43.9 1.8 39.8 C1.1 39.8 0.4 39.8 -0.2 39.8 C-0.3 39.3 -0.3 39.3 -0.6 37 C-0.8 35.8 -1 34.6 -1.1 33.4 C-1.3 32.2 -1.4 31 -1.6 29.8 C-2.2 26.8 -2.2 26.8 -4.2 25.8 C-7.6 18.9 -7 10.8 -5.2 3.6 C-3.2 0.8 -3.2 0.8 0 0 Z " fill="#EFC797" transform="translate(87.25,30.1875)"/>
<path d="M0 0 C2.9 1.4 2.9 1.4 5 4 C5.3 8.8 5.3 8.8 5 13 C6.3 13 7.6 13 9 13 C11.1 19.3 13.1 25.7 14.9 32.1 C15.2 33.2 15.5 34.3 15.9 35.5 C16.2 36.6 16.5 37.6 16.8 38.7 C18 42 18 42 20 45.4 C22.2 49.3 23.1 52.7 24.1 57.1 C25.2 62.2 26.7 66.3 29 71 C29.8 73.7 30.5 76.4 31.1 79.1 C31.5 80.4 31.8 81.8 32.1 83.2 C32.8 86.1 33.4 89.1 34 92 C30.4 93.9 26.8 95.5 23 97 C21.7 98.3 20.4 99.6 19 101 C18.3 101 17.7 101 17 101 C16.7 105.3 16.3 109.6 16 114 C15.7 114 15.3 114 15 114 C14.9 112.3 14.8 110.7 14.6 108.9 C14.1 104.2 13.4 100.5 12 96 C11.5 93.9 11 91.7 10.6 89.6 C9.7 85.7 8.7 82.3 7.3 78.6 C6 75 6 75 6 69 C5.3 69 4.7 69 4 69 C4 66.7 4 64.4 4 62 C3.3 62 2.7 62 2 62 C2 60.3 2 58.7 2 57 C1.3 57 0.7 57 0 57 C-0.3 55.4 -0.5 53.8 -0.8 52.1 C-1.1 50 -1.5 47.9 -1.8 45.8 C-2 44.8 -2.1 43.7 -2.3 42.6 C-3.2 37.2 -4.2 33.7 -7 29 C-7.2 25.2 -7.2 25.2 -7 22 C-7.7 22 -8.3 22 -9 22 C-9.1 18.7 -9.1 15.4 -9.1 12.1 C-9.1 10.3 -9.2 8.5 -9.2 6.6 C-8.9 -0.5 -6.5 -0.7 0 0 Z " fill="#F0D999" transform="translate(367,37)"/>
<path d="M0 0 C1 1 1 1 1 7 C2.3 7.7 3.6 8.3 5 9 C10.2 16.2 14.5 23.5 17 32 C17.7 32 18.3 32 19 32 C21 35 21 35 21 38 C21.7 38 22.3 38 23 38 C26 43 26 43 28 48 C31.6 53.8 31.6 53.8 34 55 C34.2 55.7 34.2 55.7 35 59 C36 60 37 61 38 62 C39.1 64.3 40.1 66.6 41 69 C45 68.4 49 67.8 53 67 C51.6 69.9 49.5 70.5 46.7 72 C46.2 72.3 46.2 72.3 43.8 73.6 C41.5 74.7 39.3 75.9 37 77 C36.3 77.8 35.7 78.7 35 79.5 C33 82 33 82 29 84 C26.4 95 26.7 106.8 27 118 C26.7 118 26.3 118 26 118 C25.9 116.5 25.7 115.1 25.6 113.6 C25 109 25 109 24 108 C23.8 99.7 23.8 99.7 25 96 C25.2 93.7 25.4 91.3 25.5 89 C25.9 82.3 25.9 82.3 27 79 C26 78.7 25 78.3 24 78 C20 70.9 20 70.9 20 67 C19 66.7 18 66.3 17 66 C15.8 62.9 15.8 62.9 15 60 C14.3 60 13.7 60 13 60 C12.8 59.2 12.8 59.2 12 55 C11.3 55 10.7 55 10 55 C9.7 53 9.3 51 9 49 C8.3 49 7.7 49 7 49 C5 45 5 45 5 41 C4.3 41 3.7 41 3 41 C2.5 39.9 2.1 38.7 1.6 37.6 C0 34 0 34 -3 33 C-4.9 28.6 -6.1 24.7 -7 20 C-7.8 19.4 -8.6 18.8 -9.4 18.1 C-13.7 14.7 -14.7 10.7 -15.6 5.4 C-14 -4.2 -7.3 -3.3 0 0 Z " fill="#7ED0A2" transform="translate(51,75)"/>
<path d="M0 0 C3.1 6.1 2.3 11.6 -0.9 17.6 C-3 20 -3 20 -5 20 C-5.2 20.8 -5.2 20.8 -6 25 C-6.3 25.7 -6.7 26.3 -7 27 C-7.7 27 -8.3 27 -9 27 C-9.1 27.9 -9.2 28.9 -9.3 29.8 C-10 33 -10 33 -13 36 C-14.1 37.9 -15.1 39.9 -16 41.9 C-17.9 45.7 -19.8 49.3 -22 53 C-22.7 53 -23.3 53 -24 53 C-24.7 54.7 -25.3 56.3 -26 58 C-28 62.2 -30.1 66.2 -32.6 70.1 C-36.4 76.3 -37.3 81 -37.2 88.2 C-37.2 89.6 -37.2 91 -37.2 92.4 C-37 96 -37 96 -36 99 C-35.8 108.8 -35.8 108.8 -37 110 C-37.1 111.7 -37.3 113.4 -37.4 115.1 C-37.9 119.8 -38.5 123.6 -40 128 C-40.7 128 -41.3 128 -42 128 C-42 128.9 -42.1 129.8 -42.1 130.7 C-42.2 131.9 -42.2 133.1 -42.3 134.3 C-42.4 135.5 -42.4 136.7 -42.5 137.9 C-43 141 -43 141 -46 144 C-45.4 138.2 -44.3 132.7 -42.9 127 C-42.6 125.5 -42.2 124 -41.8 122.4 C-41.6 121.3 -41.3 120.2 -41 119 C-40.3 119 -39.7 119 -39 119 C-38.9 106 -39.3 93 -40 80 C-41 80 -42 80 -43 80 C-43 79.3 -43 78.7 -43 78 C-43.6 77.8 -43.6 77.8 -46.4 77.1 C-50 76 -50 76 -52 75 C-52 74.3 -52 73.7 -52 73 C-53.6 73 -55.3 73 -57 73 C-57 72.7 -57 72.3 -57 72 C-55.4 72 -53.7 72 -52 72 C-51.7 70.7 -51.3 69.4 -51 68 C-50.4 67.1 -49.7 66.1 -49.1 65.2 C-46.9 61.8 -46.1 58.8 -45 55 C-44.7 54.8 -44.7 54.8 -43 54 C-42 52.3 -41 50.7 -40 49 C-39.2 47.7 -38.4 46.4 -37.6 45.1 C-34.9 40.8 -32.3 36.5 -30 32 C-29.3 32 -28.7 32 -28 32 C-27.9 31.6 -27.9 31.6 -27.4 29.6 C-26 26 -26 26 -23 21.6 C-20 17 -20 17 -19 13.4 C-16.4 4.7 -9.1 -1.2 0 0 Z " fill="#99BEE8" transform="translate(537,74)"/>
<path d="M0 0 C0.6 -0 0.6 -0 3.5 -0 C4.5 0.1 5.4 0.2 6.4 0.2 C6.7 0.9 7 1.6 7.4 2.2 C6.4 2.2 6.4 2.2 1.4 2.2 C-6.5 2.8 -10.3 5.7 -14.6 12.2 C-18 23.1 -18 33.4 -17.9 44.7 C-17.9 46.5 -17.9 48.3 -17.9 50.2 C-17.9 56 -17.9 61.8 -17.8 67.6 C-17.8 71.5 -17.8 75.4 -17.8 79.4 C-17.7 89 -17.7 98.6 -17.6 108.2 C-18.1 108.4 -18.1 108.4 -20.6 109.2 C-20.8 108.4 -20.8 108.4 -21.6 104.2 C-21 104.6 -20.3 104.9 -19.6 105.2 C-19.6 104.2 -19.6 103.2 -19.6 102.1 C-19.7 91.4 -19.7 80.6 -19.7 69.9 C-19.7 65.9 -19.8 61.9 -19.8 57.9 C-19.8 52.1 -19.8 46.4 -19.8 40.6 C-19.8 38.8 -19.8 37 -19.9 35.2 C-19.9 12.3 -19.9 12.3 -9.6 2.2 C-6 -0.1 -4.3 -0 0 0 Z " fill="#AEAFB1" transform="translate(426.625,4.75)"/>
<path d="M0 0 C4.8 4.8 4.1 9.9 4.1 16.3 C4.1 18 4.1 19.6 4.1 21.4 C4.1 23.2 4.1 25 4.1 26.9 C4.1 28.7 4.1 30.6 4.1 32.5 C4.1 37.4 4.1 42.4 4.1 47.3 C4.1 52.3 4.1 57.4 4 62.4 C4 72.3 4 82.1 4 92 C4.7 92 5.3 92 6 92 C6.1 90.5 6.2 89.1 6.3 87.6 C6.5 86.1 6.8 84.6 7 83 C7.5 82.8 7.5 82.8 10 82 C10.4 78.7 10.7 75.3 11 72 C11.9 69 12.9 66 14 63 C14.3 63 14.7 63 15 63 C15.2 70.6 15.2 70.6 13 74 C11.5 79 10.2 83.7 9.5 88.9 C9 92 9 92 6 97 C5 97 4 97 3 97 C2.7 66.3 2.3 35.6 2 4 C1.3 4 0.7 4 0 4 C0 2.7 0 1.4 0 0 Z " fill="#AFB0B3" transform="translate(442,14)"/>
<path d="M0 0 C3.7 3.7 2.2 10 2.2 15.1 C2.2 16.3 2.2 17.5 2.2 18.8 C2.1 27.9 2.1 27.9 1 29 C0.9 31.6 0.9 34.1 0.9 36.7 C0.9 38.3 0.9 39.9 0.9 41.5 C0.9 43.1 0.9 44.8 0.9 46.5 C0.9 48.2 0.9 49.8 0.9 51.5 C0.9 53.1 0.9 54.7 0.9 56.3 C0.9 57.7 0.9 59.2 0.9 60.7 C1 64 1 64 2 65 C2.2 75.8 2.2 75.8 1 77 C1 81.3 1.1 85.7 1.2 90 C1 94 1 94 -1 97 C-1 85.4 -1 73.8 -1.1 62.2 C-1.1 56.8 -1.1 51.4 -1.1 46 C-1.1 40.8 -1.1 35.6 -1.1 30.4 C-1.1 27.4 -1.1 24.5 -1.1 21.5 C-1.1 19.7 -1.1 17.9 -1.1 16.1 C-1.1 14.5 -1.1 12.9 -1.1 11.3 C-1 7.4 -0.6 3.8 0 0 Z " fill="#72A085" transform="translate(437,30)"/>
<path d="M0 0 C1 3 1 3 0.1 6.8 C-1.5 14.7 -1.6 22.7 -0.5 30.7 C0.2 38 0.2 45.3 0.3 52.6 C0.3 54.2 0.4 55.8 0.4 57.4 C0.4 62.5 0.5 67.5 0.6 72.6 C0.6 76 0.6 79.4 0.7 82.8 C0.8 91.2 0.9 99.6 1 108 C0.3 108 -0.3 108 -1 108 C-1 106.4 -1.1 104.8 -1.1 103.1 C-1.2 97 -1.3 90.9 -1.4 84.8 C-1.4 82.2 -1.5 79.6 -1.5 77 C-1.6 73.2 -1.6 69.4 -1.7 65.6 C-1.7 64.5 -1.7 63.3 -1.7 62.1 C-1.9 55.1 -2.2 48.2 -2.8 41.3 C-3.2 35.6 -3.1 29.9 -3.1 24.2 C-3.1 23 -3.1 21.9 -3.1 20.7 C-3.1 14.4 -2.8 8.3 -2 2 C-1.3 2 -0.7 2 0 2 C0 1.3 0 0.7 0 0 Z " fill="#74A98A" transform="translate(418,19)"/>
<path d="M0 0 C3 2 3 2 3.3 5.1 C3.3 6.3 3.3 7.6 3.2 8.9 C3.2 10.4 3.2 11.8 3.2 13.2 C3.1 14.7 3.1 16.2 3.1 17.7 C3 20.6 3 23.5 2.9 26.4 C2.9 27.7 2.9 29 2.8 30.3 C3 34.2 3.9 37.3 5 41 C5.1 42.6 5.2 44.1 5.4 45.8 C6.1 51.6 7.9 56.5 10 62 C11.3 66.9 12 70.9 12 76 C6 67 3.8 54.6 3 44 C2.5 42.8 2 41.6 1.5 40.4 C-0.7 32.5 -0.3 25 -0.2 16.9 C-0.2 15.3 -0.2 13.7 -0.1 12 C-0.1 8 -0.1 4 0 0 Z " fill="#B6B9C3" transform="translate(66,154)"/>
<path d="M0 0 C0.3 0 0.7 0 1 0 C1 5.6 -0.2 7.3 -3 12 C-3.7 14 -4.4 16 -5 18 C-5.7 18 -6.3 18 -7 18 C-7.1 19.7 -7.2 21.4 -7.3 23.1 C-7.9 28.4 -8.6 30.6 -11 35 C-12 38.3 -13 41.7 -14 45 C-14.5 46.3 -14.9 47.7 -15.4 49.1 C-16.4 52.1 -17.3 55.2 -18.2 58.3 C-18.6 59.8 -19.1 61.4 -19.5 62.9 C-19.9 64.4 -20.3 65.9 -20.7 67.4 C-22 71 -22 71 -25 73 C-24.1 69.5 -23.1 66 -22.1 62.5 C-20.3 56 -18.6 49.5 -17 43 C-16.3 43 -15.7 43 -15 43 C-15 41 -15 39 -15 37 C-14.3 36 -13.7 35 -13 34 C-12.7 32.3 -12.3 30.7 -12 29 C-11.3 29 -10.7 29 -10 29 C-10 27 -10 25 -10 23 C-8.2 16.8 -5.9 10.8 -3 5 C-2.3 5 -1.7 5 -1 5 C-0.7 3.4 -0.3 1.7 0 0 Z " fill="#B0B0B3" transform="translate(195,38)"/>
</svg>
