<?xml version="1.0" standalone="no"?>
<!DOCTYPE svg PUBLIC "-//W3C//DTD SVG 20010904//EN"
 "http://www.w3.org/TR/2001/REC-SVG-20010904/DTD/svg10.dtd">
<svg version="1.0" xmlns="http://www.w3.org/2000/svg"
 width="1046.000000pt" height="1280.000000pt" viewBox="0 0 1046.000000 1280.000000"
 preserveAspectRatio="xMidYMid meet">
<metadata>
Created by potrace 1.15, written by Peter Selinger 2001-2017
</metadata>
<g transform="translate(0.000000,1280.000000) scale(0.100000,-0.100000)"
fill="#000000" stroke="none">
<path d="M3566 12753 c-70 -37 -97 -58 -133 -102 -83 -105 -143 -260 -179
-460 -8 -48 -24 -124 -34 -171 -10 -47 -23 -123 -29 -170 -17 -132 -41 -493
-41 -616 0 -109 0 -111 28 -131 15 -11 41 -23 57 -27 93 -22 115 -25 164 -26
53 0 53 0 46 -27 -9 -38 -20 -49 -97 -100 -49 -32 -72 -55 -84 -83 -12 -27
-27 -42 -53 -53 -44 -17 -157 -102 -176 -131 -44 -67 -85 -277 -85 -431 0 -38
-6 -180 -15 -315 -41 -670 -44 -807 -20 -887 22 -74 43 -96 101 -102 69 -8 70
-30 3 -89 -135 -118 -155 -142 -182 -227 -45 -137 -56 -218 -57 -405 -1 -125
4 -221 19 -334 19 -143 24 -164 52 -208 74 -115 174 -168 331 -176 92 -4 100
-3 163 27 195 91 394 416 435 712 7 46 17 95 23 107 7 14 11 85 12 175 0 178
-12 215 -81 251 -54 29 -235 28 -387 -2 -138 -28 -217 -29 -217 -4 0 54 93
108 266 153 221 58 369 74 408 44 23 -17 82 -20 91 -5 11 19 -6 49 -39 70 -30
18 -50 20 -178 20 -79 0 -194 -7 -254 -15 -60 -9 -119 -13 -131 -10 -43 10
-27 40 45 83 105 64 111 65 257 56 229 -13 258 -6 284 77 7 24 40 116 72 204
61 171 149 494 149 551 0 19 7 45 15 58 12 19 16 62 18 212 2 179 1 193 -23
259 -25 71 -85 145 -153 190 -42 27 -274 26 -472 -3 -201 -30 -223 -29 -231 4
-8 30 -3 34 76 66 58 24 43 23 460 15 49 -1 87 2 89 8 12 27 -189 85 -299 85
-50 0 -65 12 -51 38 17 31 82 45 196 40 91 -3 107 -7 175 -40 41 -20 89 -39
107 -43 31 -6 33 -4 88 79 31 47 67 116 80 153 13 38 37 104 53 149 36 95 84
325 108 509 33 262 1 664 -61 771 -33 55 -172 204 -191 204 -8 0 -43 16 -80
35 l-66 35 -141 0 -142 -1 -89 -46z"/>
<path d="M6487 11949 c-83 -23 -175 -66 -242 -111 -103 -69 -255 -289 -363
-523 -36 -77 -70 -147 -77 -155 -6 -8 -20 -44 -29 -80 -23 -84 -209 -649 -296
-900 -40 -115 -70 -219 -74 -255 -5 -56 -9 -64 -61 -120 -83 -89 -157 -248
-259 -555 -46 -140 -116 -346 -155 -458 -91 -260 -93 -312 -14 -336 11 -4 77
-13 146 -21 69 -7 135 -18 146 -25 27 -14 29 -60 2 -60 -22 0 -69 -35 -60 -45
4 -3 36 -11 73 -17 58 -10 66 -14 66 -33 0 -30 -21 -35 -150 -35 -126 -1 -164
-14 -256 -95 -60 -53 -154 -186 -154 -218 0 -8 -11 -62 -24 -119 -34 -141 -49
-313 -37 -408 34 -260 82 -380 181 -457 53 -41 58 -42 127 -43 86 0 122 13
253 89 112 66 221 171 299 288 116 174 241 465 241 560 0 33 -8 48 -51 96 -28
32 -78 76 -110 98 -86 58 -104 99 -44 99 41 0 81 -19 144 -67 24 -18 52 -33
63 -33 23 0 71 24 115 58 96 72 314 445 355 607 9 33 50 188 93 344 l77 283
-27 28 c-14 15 -48 39 -73 53 -80 43 -412 163 -517 187 -140 32 -175 53 -175
108 0 39 33 54 116 53 69 -1 79 2 99 23 36 39 94 49 237 43 106 -5 133 -10
155 -26 16 -11 66 -31 113 -45 47 -13 105 -32 129 -40 66 -24 93 -21 127 17
27 28 33 48 53 157 26 147 63 279 91 327 11 19 20 41 20 50 0 9 51 145 114
302 124 309 209 549 259 731 27 98 31 132 32 230 0 115 0 117 -39 194 -64 130
-179 227 -310 262 -76 20 -246 17 -329 -7z"/>
<path d="M744 11792 c-119 -42 -206 -154 -259 -337 -36 -127 -55 -291 -55
-489 0 -227 13 -264 110 -310 39 -18 64 -21 192 -21 158 -1 175 -6 164 -48 -7
-27 -30 -38 -126 -56 -81 -15 -139 -16 -188 -1 -53 17 -62 7 -54 -54 7 -60 18
-83 46 -101 28 -18 24 -19 142 50 40 24 66 14 62 -22 -2 -22 -14 -34 -55 -56
-110 -59 -139 -141 -164 -469 -27 -332 35 -591 200 -843 111 -169 195 -203
372 -150 83 25 128 26 156 3 32 -26 -52 -88 -146 -107 -71 -15 -127 -47 -152
-87 -18 -30 -19 -40 -9 -121 29 -241 100 -666 121 -720 6 -15 24 -77 40 -136
32 -118 79 -230 110 -263 11 -12 52 -36 91 -54 97 -45 181 -47 253 -7 78 43
162 122 185 175 54 122 63 182 68 452 2 143 -1 296 -7 349 -13 120 -100 492
-117 507 -8 6 -14 24 -14 40 0 17 -20 63 -46 108 -55 94 -61 130 -39 216 19
73 16 131 -15 345 -33 222 -87 402 -206 693 -73 177 -77 191 -90 311 -7 69
-14 185 -14 256 -1 209 -35 600 -57 665 -78 220 -306 349 -499 282z"/>
<path d="M8925 10540 c-3 -5 -28 -10 -54 -10 -115 0 -320 -99 -427 -207 -49
-49 -185 -232 -279 -378 -43 -66 -95 -142 -116 -170 -86 -114 -263 -456 -309
-595 -14 -41 -41 -97 -61 -125 -68 -93 -159 -265 -159 -298 0 -7 52 -24 121
-41 172 -41 329 -123 329 -172 0 -14 -7 -16 -50 -10 -28 4 -87 20 -131 36 -83
31 -119 37 -119 20 0 -5 27 -39 60 -76 46 -50 60 -73 60 -96 l0 -31 -52 6
c-36 4 -95 27 -185 72 -73 36 -143 65 -156 65 -37 0 -63 -33 -318 -395 -242
-345 -409 -611 -409 -653 0 -7 27 -25 60 -42 53 -27 60 -34 60 -60 0 -43 -50
-55 -156 -36 -53 9 -83 10 -91 4 -7 -6 -13 -31 -13 -57 0 -46 -1 -46 -49 -69
-91 -41 -186 -164 -382 -492 -121 -201 -144 -251 -159 -342 -31 -198 108 -380
302 -395 91 -8 202 12 276 50 64 32 248 176 258 202 3 8 16 17 27 21 32 10
130 88 199 158 97 98 123 177 93 279 -10 34 -27 71 -36 82 -34 39 -77 140 -81
193 -5 48 -10 58 -65 115 -111 116 -118 147 -33 147 65 0 107 -18 183 -79 34
-27 82 -58 107 -70 25 -11 79 -52 122 -91 50 -46 84 -70 100 -70 57 1 253 176
351 313 130 184 278 446 309 548 10 35 8 41 -32 105 -79 126 -110 214 -75 214
21 0 80 -55 106 -98 38 -64 59 -83 80 -71 28 15 24 67 -10 120 -15 24 -56 75
-90 113 -64 72 -74 103 -32 98 29 -3 133 -65 181 -108 33 -30 56 -38 141 -50
32 -5 38 -2 71 38 44 54 78 116 78 143 0 12 4 25 9 31 5 5 21 47 36 94 15 47
47 123 71 170 23 47 66 137 95 200 156 347 170 369 251 396 68 22 115 67 187
179 157 242 265 507 277 677 11 169 -32 286 -146 390 -74 69 -128 97 -182 98
-21 0 -38 5 -38 10 0 6 -22 10 -49 10 -28 0 -53 -4 -56 -10z"/>
<path d="M2230 7029 c-19 -5 -100 -14 -180 -18 -178 -11 -359 -44 -419 -77
-24 -13 -49 -24 -57 -24 -7 0 -61 -38 -120 -85 -58 -47 -138 -104 -178 -127
-108 -63 -273 -185 -347 -258 -129 -129 -195 -227 -317 -474 -128 -259 -150
-314 -162 -403 -5 -36 -25 -98 -48 -150 -84 -184 -99 -256 -148 -718 -24 -231
-49 -421 -54 -423 -6 -2 -10 -34 -10 -72 0 -100 -25 -326 -75 -675 -24 -170
-49 -353 -55 -405 -7 -52 -21 -138 -32 -190 -36 -175 -34 -364 8 -700 16 -129
21 -142 120 -358 55 -121 166 -272 270 -371 108 -102 332 -258 417 -290 32
-11 75 -30 95 -40 54 -28 321 -106 458 -135 184 -38 196 -37 289 12 44 24 94
52 111 63 25 15 60 21 170 28 77 5 213 15 304 22 109 8 180 9 205 3 37 -9 40
-12 37 -39 -5 -42 -15 -50 -87 -76 -59 -21 -126 -67 -125 -86 1 -4 44 -28 97
-53 53 -25 123 -62 156 -83 109 -72 292 -167 318 -167 26 0 26 1 18 43 -4 23
-22 98 -38 167 -36 143 -37 164 -15 309 37 257 71 359 217 650 135 270 197
361 249 361 25 0 28 -4 28 -31 0 -40 -8 -54 -103 -183 -89 -121 -147 -225
-147 -262 0 -14 -9 -37 -20 -52 -27 -36 -66 -197 -80 -326 -25 -226 33 -544
137 -750 129 -257 464 -489 777 -537 39 -6 76 -15 81 -19 17 -12 350 -33 422
-26 326 32 569 190 999 647 148 158 185 192 242 222 149 79 318 222 436 369
73 91 206 335 206 378 0 15 7 34 16 41 15 12 16 33 11 164 -6 170 -9 182 -111
405 -55 121 -61 141 -59 195 3 121 101 335 209 455 41 45 79 100 97 140 27 59
29 72 23 133 -3 37 -11 75 -16 85 -5 9 -14 35 -20 57 -10 43 -68 145 -103 184
-45 49 -119 101 -144 101 -15 0 -42 15 -65 36 -70 63 -162 92 -517 164 -202
41 -355 83 -365 99 -3 5 -65 14 -138 21 -73 6 -147 16 -164 21 -37 11 -59 48
-83 139 -22 88 -35 94 -172 79 -57 -6 -111 -15 -121 -20 -9 -5 -63 -15 -120
-23 -123 -18 -198 -33 -218 -46 -22 -14 4 -54 64 -95 46 -31 412 -200 476
-220 14 -4 41 -22 60 -40 19 -18 53 -41 75 -51 89 -40 360 -350 380 -434 3
-14 1 -38 -4 -53 -9 -24 -14 -26 -31 -17 -12 6 -42 39 -68 73 -26 34 -96 114
-156 177 -59 63 -111 118 -115 123 -18 22 -191 143 -267 187 -105 60 -470 241
-568 282 -87 35 -116 35 -207 -2 -88 -36 -110 -37 -203 -9 -94 28 -244 22
-396 -16 -185 -46 -231 -65 -604 -256 -227 -115 -296 -156 -370 -215 -94 -76
-106 -83 -106 -61 0 54 165 202 356 320 131 80 374 199 474 232 159 52 411
163 459 202 l24 20 -86 21 c-63 16 -117 22 -199 22 -184 1 -432 26 -538 55
-373 101 -592 215 -633 328 -10 26 2 21 78 -29 146 -96 370 -192 570 -243 102
-26 138 -31 242 -31 67 0 124 3 126 8 10 15 -14 53 -45 72 -18 11 -84 36 -148
56 -130 42 -152 54 -95 54 78 0 439 -73 476 -96 7 -4 47 -13 88 -20 137 -21
345 -81 435 -125 68 -33 142 -38 451 -35 382 5 591 24 737 69 96 29 107 34
102 52 -12 39 -70 87 -159 131 -78 38 -370 151 -490 189 -143 46 -517 144
-635 166 -36 6 -77 18 -92 25 -15 8 -41 14 -58 14 -18 0 -109 16 -204 35 -95
19 -213 39 -262 45 -49 5 -123 17 -164 25 -41 8 -145 20 -230 25 -178 11 -249
24 -282 49 -13 10 -72 30 -133 44 -60 15 -152 38 -203 52 -51 13 -157 34 -235
46 -124 18 -169 20 -357 15 -245 -7 -262 -10 -258 -40 2 -15 30 -35 103 -73
55 -29 108 -53 119 -53 11 0 65 -15 120 -34 56 -19 121 -37 146 -41 25 -4 56
-13 70 -20 14 -7 61 -15 104 -19 86 -8 116 -18 116 -41 0 -17 -62 -18 -235 -5
-122 9 -370 62 -445 95 -30 13 -89 36 -130 51 -234 84 -320 169 -289 286 11
39 17 46 50 56 69 22 159 15 256 -19 74 -25 108 -31 216 -36 70 -3 127 -9 127
-14 0 -4 39 -10 88 -14 236 -18 399 -39 517 -67 72 -17 132 -35 133 -39 2 -5
14 -9 26 -9 13 0 58 -16 100 -36 60 -27 98 -37 169 -45 51 -5 106 -12 122 -15
17 -4 107 -13 200 -20 651 -52 1202 -163 1479 -300 49 -24 95 -44 103 -44 21
0 274 -98 444 -173 126 -55 159 -74 251 -149 118 -96 158 -114 227 -103 25 3
77 11 115 16 38 5 96 20 130 33 34 13 94 36 135 51 95 36 234 129 301 201 100
110 183 257 210 371 16 69 19 335 4 354 -6 8 -14 33 -17 56 -3 24 -18 64 -34
89 -15 25 -43 71 -61 102 -74 125 -286 349 -444 468 -124 93 -274 168 -338
169 l-45 0 -3 -38 c-2 -21 4 -59 12 -85 9 -25 16 -65 16 -89 0 -42 -1 -43 -32
-43 -28 1 -38 8 -71 55 -88 127 -437 407 -629 505 -102 53 -119 65 -140 102
-27 49 -93 103 -146 118 -102 29 -185 33 -354 16 -92 -9 -186 -16 -210 -16
-24 0 -62 -7 -85 -15 -32 -11 -96 -15 -255 -16 -117 -1 -222 2 -233 7 -35 14
-149 86 -184 116 -43 38 -220 123 -295 143 -33 8 -78 23 -100 34 -23 10 -62
24 -88 30 -56 13 -358 13 -408 0z m239 -938 c12 -8 12 -14 -1 -43 -8 -18 -21
-66 -27 -105 -12 -66 -11 -83 9 -174 27 -125 24 -203 -10 -231 -34 -27 -58
-22 -100 21 -36 37 -38 41 -44 132 -14 195 29 336 118 390 35 22 36 22 55 10z
m1053 -338 c0 -27 2 -86 3 -133 1 -60 8 -102 23 -143 17 -43 22 -80 22 -147 0
-131 -18 -163 -88 -153 -27 5 -37 14 -56 52 -29 56 -61 273 -51 340 11 72 45
150 82 192 48 53 63 51 65 -8z m1562 -240 c-4 -16 -22 -66 -40 -111 -18 -46
-43 -133 -55 -194 -26 -133 -21 -156 59 -291 78 -131 93 -172 90 -231 -3 -50
-4 -51 -36 -54 -46 -5 -80 35 -148 172 l-55 111 0 106 c-1 59 2 116 6 128 11
36 -25 25 -85 -25 -99 -81 -160 -102 -265 -89 -62 7 -75 29 -22 39 128 25 367
212 493 386 31 44 59 80 61 80 2 0 0 -12 -3 -27z"/>
<path d="M9147 3044 c-82 -19 -167 -44 -190 -55 -115 -58 -217 -130 -296 -210
-87 -86 -171 -146 -191 -134 -6 3 -17 21 -24 39 -17 41 -54 53 -96 31 -16 -8
-55 -47 -86 -86 -31 -39 -77 -84 -102 -100 -53 -34 -130 -65 -139 -56 -3 4 0
20 7 36 33 82 -28 109 -100 45 -21 -20 -65 -74 -96 -120 -31 -47 -64 -89 -73
-94 -11 -5 -88 2 -206 20 -105 16 -210 29 -235 30 -25 0 -146 -12 -270 -26
l-225 -26 -52 -40 c-119 -91 -232 -258 -253 -376 -5 -26 -15 -65 -24 -87 -30
-78 -12 -285 33 -378 18 -37 31 -49 79 -70 81 -36 136 -28 259 34 134 68 256
104 478 138 72 12 188 32 260 46 71 14 141 25 155 25 15 0 59 16 98 35 77 37
99 63 179 210 38 70 66 92 75 58 3 -10 -6 -108 -20 -219 -25 -201 -25 -247 2
-257 8 -3 43 4 78 15 79 26 197 26 671 1 451 -24 503 -23 657 16 68 17 136 31
150 31 14 0 38 7 54 15 15 8 39 15 52 15 64 0 266 94 410 191 198 133 306 341
291 558 -19 258 -122 418 -369 575 -103 65 -138 81 -275 125 -298 95 -417 103
-666 45z"/>
</g>
</svg>
